<svg xmlns="http://www.w3.org/2000/svg" xmlns:xlink="http://www.w3.org/1999/xlink" width="250" zoomAndPan="magnify" viewBox="0 0 187.5 187.499992" height="250" preserveAspectRatio="xMidYMid meet" version="1.0"><defs><clipPath id="87aa9bcded"><path d="M 13 18.507812 L 174 18.507812 L 174 177.832031 L 13 177.832031 Z M 13 18.507812 " clip-rule="nonzero"/></clipPath><clipPath id="32ce719376"><path d="M 60.355469 18.507812 L 126.640625 18.507812 C 131.039062 18.507812 134.878906 21.492188 135.964844 25.753906 L 172.894531 170.6875 C 173.339844 172.429688 172.953125 174.273438 171.851562 175.691406 C 170.75 177.109375 169.058594 177.9375 167.261719 177.9375 L 19.730469 177.9375 C 17.9375 177.9375 16.242188 177.109375 15.140625 175.691406 C 14.039062 174.273438 13.65625 172.429688 14.097656 170.6875 L 51.027344 25.753906 C 52.113281 21.492188 55.953125 18.507812 60.355469 18.507812 Z M 60.355469 18.507812 " clip-rule="nonzero"/></clipPath><clipPath id="6dee9ec4ca"><path d="M 62 0 L 187 0 L 187 161 L 62 161 Z M 62 0 " clip-rule="nonzero"/></clipPath></defs><g clip-path="url(#87aa9bcded)"><g clip-path="url(#32ce719376)"><path stroke-linecap="butt" transform="matrix(0.748005, 0, 0, 0.748005, 12.252266, 18.506702)" fill="none" stroke-linejoin="miter" d="M 64.308642 0.00148458 L 152.924539 0.00148458 C 158.804762 0.00148458 163.938206 3.991263 165.389984 9.688708 L 214.760877 203.448835 C 215.356211 205.777946 214.839211 208.242835 213.366544 210.138502 C 211.893877 212.034169 209.632655 213.14128 207.230432 213.14128 L 9.997527 213.14128 C 7.600527 213.14128 5.334082 212.034169 3.861415 210.138502 C 2.388748 208.242835 1.876971 205.777946 2.467082 203.448835 L 51.837975 9.688708 C 53.289753 3.991263 58.423198 0.00148458 64.308642 0.00148458 Z M 64.308642 0.00148458 " stroke="#ffffff" stroke-width="40" stroke-opacity="1" stroke-miterlimit="4"/></g></g><g clip-path="url(#6dee9ec4ca)"><path stroke-linecap="butt" transform="matrix(0.374003, -0.647792, 0.647792, 0.374003, 84.931391, 142.714319)" fill="none" stroke-linejoin="miter" d="M 33.748891 4.500191 L 172.581699 4.503195 " stroke="#ffffff" stroke-width="9" stroke-opacity="1" stroke-miterlimit="4"/></g><path stroke-linecap="round" transform="matrix(0.374003, -0.647792, 0.647792, 0.374003, 84.931391, 142.714319)" fill-opacity="1" fill="#ffffff" fill-rule="nonzero" stroke-linejoin="round" d="M 4.503278 4.500864 C 4.49793 -2.955287 10.541014 -9.001027 17.999776 -9.001851 C 25.454016 -9.000065 31.499756 -2.956981 31.50058 4.501781 C 31.498794 11.956021 25.45571 18.001761 18.00147 17.999974 C 10.542708 18.000799 4.501491 11.955104 4.503278 4.500864 " stroke="#ffffff" stroke-width="9" stroke-opacity="1" stroke-miterlimit="4"/><path stroke-linecap="round" transform="matrix(0.374003, -0.647792, 0.647792, 0.374003, 84.931391, 142.714319)" fill="none" stroke-linejoin="round" d="M 201.831834 4.499911 C 201.830048 11.95415 195.786964 17.99989 188.332725 17.998104 C 180.873962 17.998928 174.832745 11.953233 174.834532 4.498994 C 174.831796 -2.952635 180.87488 -8.998375 188.333642 -8.999199 C 195.787881 -8.997413 201.833621 -2.954329 201.831834 4.499911 " stroke="#ffffff" stroke-width="9" stroke-opacity="1" stroke-miterlimit="4"/><path stroke-linecap="butt" transform="matrix(0.748005, 0, 0, 0.748005, 83.513862, 93.201601)" fill="none" stroke-linejoin="miter" d="M 0.00235678 4.498371 L 26.703581 4.498371 " stroke="#ffffff" stroke-width="9" stroke-opacity="1" stroke-miterlimit="4"/><path stroke-linecap="butt" transform="matrix(0.748005, 0, 0, 0.748005, 83.513862, 73.702061)" fill="none" stroke-linejoin="miter" d="M 0.00235678 4.497756 L 26.703581 4.497756 " stroke="#ffffff" stroke-width="9" stroke-opacity="1" stroke-miterlimit="4"/><path stroke-linecap="butt" transform="matrix(0.748005, 0, 0, 0.748005, 83.513862, 54.202524)" fill="none" stroke-linejoin="miter" d="M 0.00235678 4.502359 L 26.703581 4.502359 " stroke="#ffffff" stroke-width="9" stroke-opacity="1" stroke-miterlimit="4"/></svg>