<svg xmlns="http://www.w3.org/2000/svg" xmlns:xlink="http://www.w3.org/1999/xlink" width="250" zoomAndPan="magnify" viewBox="0 0 187.5 187.499992" height="250" preserveAspectRatio="xMidYMid meet" version="1.0"><defs><clipPath id="abf8bda208"><path d="M 88 0 L 187 0 L 187 129 L 88 129 Z M 88 0 " clip-rule="nonzero"/></clipPath><clipPath id="b5f5555dad"><path d="M 107 0 L 187 0 L 187 138 L 107 138 Z M 107 0 " clip-rule="nonzero"/></clipPath><clipPath id="7344e897f7"><path d="M 63 2 L 125 2 L 125 185 L 63 185 Z M 63 2 " clip-rule="nonzero"/></clipPath><clipPath id="b43031c236"><path d="M -14.488281 83.625 L 93.941406 -24.804688 L 201.839844 83.097656 L 93.410156 191.523438 Z M -14.488281 83.625 " clip-rule="nonzero"/></clipPath><clipPath id="00f17072d6"><path d="M -14.488281 83.625 L 93.941406 -24.804688 L 201.839844 83.097656 L 93.410156 191.523438 Z M -14.488281 83.625 " clip-rule="nonzero"/></clipPath></defs><path stroke-linecap="round" transform="matrix(0, -0.748005, 0.748005, 0, 38.304842, 84.910502)" fill="none" stroke-linejoin="miter" d="M 8.658908 12.465239 C 22.153131 3.827683 35.652577 3.843349 49.1468 12.522684 " stroke="#ffffff" stroke-width="12" stroke-opacity="1" stroke-miterlimit="4"/><path stroke-linecap="round" transform="matrix(0.00511339, -0.747988, 0.747988, 0.00511339, 16.339417, 93.050583)" fill="none" stroke-linejoin="miter" d="M 8.484014 15.745387 C 29.691777 2.732549 50.905057 2.749424 72.113479 15.806526 " stroke="#ffffff" stroke-width="12" stroke-opacity="1" stroke-miterlimit="4"/><g clip-path="url(#abf8bda208)"><path stroke-linecap="round" transform="matrix(0, 0.748005, -0.748005, 0, 148.750404, 41.422281)" fill="none" stroke-linejoin="miter" d="M 8.663125 12.465986 C 22.157348 3.82843 35.651571 3.844097 49.145795 12.523431 " stroke="#ffffff" stroke-width="12" stroke-opacity="1" stroke-miterlimit="4"/></g><g clip-path="url(#b5f5555dad)"><path stroke-linecap="round" transform="matrix(-0.00511339, 0.747988, -0.747988, -0.00511339, 170.722167, 33.286029)" fill="none" stroke-linejoin="miter" d="M 8.483139 15.749391 C 29.690867 2.731332 50.904182 2.753428 72.112569 15.805309 " stroke="#ffffff" stroke-width="12" stroke-opacity="1" stroke-miterlimit="4"/></g><g clip-path="url(#7344e897f7)"><g clip-path="url(#b43031c236)"><g clip-path="url(#00f17072d6)"><path fill="#ffffff" d="M 116.964844 2.625 C 112.875 2.625 109.566406 5.933594 109.566406 10.023438 L 109.574219 86.886719 C 109.566406 95.328125 102.210938 102.6875 93.769531 102.683594 C 89.550781 102.683594 85.585938 101.042969 82.605469 98.058594 C 79.617188 95.070312 77.980469 91.113281 77.976562 86.890625 L 77.976562 10.019531 C 77.972656 5.933594 74.667969 2.625 70.582031 2.625 C 66.492188 2.628906 63.1875 5.9375 63.1875 10.019531 L 63.183594 86.886719 C 63.1875 95.066406 66.371094 102.75 72.144531 108.527344 C 76.128906 112.511719 81.042969 115.222656 86.375 116.550781 L 86.382812 162.089844 C 83.117188 164.300781 80.972656 168.042969 80.984375 172.285156 C 80.980469 179.078125 86.480469 184.582031 93.269531 184.570312 C 100.058594 184.574219 105.570312 179.066406 105.5625 172.277344 C 105.574219 168.503906 103.84375 165.179688 101.171875 162.917969 L 101.175781 116.550781 C 106.507812 115.226562 111.429688 112.515625 115.417969 108.523438 C 121.199219 102.746094 124.378906 95.066406 124.378906 86.882812 L 124.371094 10.023438 C 124.359375 5.9375 121.054688 2.628906 116.964844 2.625 Z M 116.964844 2.625 " fill-opacity="1" fill-rule="nonzero"/></g></g></g></svg>